<svg width="68" height="68" viewBox="0 0 68 68" fill="none" xmlns="http://www.w3.org/2000/svg">
<path d="M67.7457 57.7577C67.3737 57.3115 66.7044 57.2478 66.2581 57.6302C63.9312 59.5959 60.5525 59.5959 58.2044 57.6197C55.6862 55.484 52.2225 55.0803 49.3431 56.4084L56.2707 32.1621C56.4194 31.6415 56.1537 31.089 55.6438 30.8871L34.3937 22.3871C34.1388 22.2915 33.8625 22.2915 33.6075 22.3871L12.3575 30.8871C11.8475 31.089 11.5818 31.6415 11.7306 32.1621L18.6581 56.4084C15.7787 55.0803 12.315 55.484 9.78626 57.6197C7.45939 59.5853 4.08058 59.5853 1.7537 57.6197C1.29683 57.2371 0.627451 57.3009 0.255602 57.7472C-0.126883 58.1934 -0.073771 58.8628 0.372461 59.2453C3.49622 61.8802 8.03311 61.8802 11.1569 59.2453C13.4837 57.2797 16.8731 57.2797 19.2 59.2453C19.3912 59.4047 19.5931 59.564 19.795 59.7021C19.8056 59.7128 19.8162 59.7234 19.8268 59.734C19.8906 59.7765 19.965 59.819 20.0394 59.8615C22.8444 61.6996 26.4675 61.6678 29.2512 59.7871C29.5063 59.6277 29.7506 59.4471 29.9843 59.2453C31.1425 58.2678 32.5662 57.779 33.9794 57.7684C33.99 57.7684 33.99 57.779 34.0006 57.779C34.0113 57.779 34.0113 57.7684 34.0219 57.7684C35.435 57.779 36.8588 58.2678 38.0168 59.2453C38.2506 59.4471 38.495 59.6277 38.7394 59.7871C41.5444 61.689 45.21 61.6996 48.0256 59.819C48.0894 59.7871 48.1425 59.7447 48.1956 59.7128C48.4081 59.564 48.61 59.4047 48.8013 59.2453C51.1281 57.2797 54.5069 57.2797 56.8444 59.2559C58.4062 60.5734 60.3188 61.2321 62.2419 61.2321C64.1544 61.2321 66.0669 60.5734 67.6182 59.2559C68.075 58.8734 68.1281 58.204 67.7457 57.7577ZM35.0631 55.7178C34.3618 55.6327 33.6393 55.6327 32.9381 55.7178V32.9377C32.9381 32.3534 33.4163 31.8752 34.0006 31.8752C34.585 31.8752 35.0631 32.3534 35.0631 32.9377V55.7178Z" fill="#FF7B29"/>
<path d="M67.6182 66.0344C66.0669 67.3413 64.1544 68 62.2419 68C60.3188 68 58.4062 67.3413 56.8444 66.0238C54.5069 64.0582 51.1281 64.0582 48.8013 66.0238C45.6775 68.6587 41.1406 68.6587 38.0168 66.0238C35.69 64.0582 32.3112 64.0582 29.9843 66.0238C26.8606 68.6587 22.3238 68.6587 19.2 66.0238C16.8731 64.0582 13.4837 64.0582 11.1569 66.0238C8.03311 68.6587 3.50685 68.6587 0.372461 66.0238C-0.073771 65.6413 -0.126883 64.9719 0.255602 64.5257C0.62745 64.0794 1.29683 64.0156 1.7537 64.3981C4.08058 66.3638 7.45939 66.3638 9.78626 64.3981C12.91 61.7631 17.4468 61.7631 20.5706 64.3981C22.8975 66.3638 26.2762 66.3638 28.6137 64.3981C31.7269 61.7631 36.2638 61.7631 39.3875 64.3981C41.7144 66.3638 45.1038 66.3638 47.4306 64.3981C50.5544 61.7631 55.0912 61.7631 58.2044 64.3981C60.5525 66.3638 63.9312 66.3638 66.2581 64.4087C66.7044 64.0263 67.3737 64.09 67.7457 64.5362C68.1281 64.9825 68.075 65.6519 67.6182 66.0344Z" fill="#FF7B29"/>
<path d="M34 20.1873C34.3931 20.1873 34.7756 20.2617 35.1369 20.3998L54.1875 28.0179V25.7752H54.1878V19.122C54.1878 18.5352 53.7126 18.0595 53.1253 18.0595C52.5381 18.0595 52.0628 18.5352 52.0628 19.122V23.7915L34.3931 16.7235C34.1381 16.628 33.8619 16.628 33.6069 16.7235L15.9378 23.7912V19.122C15.9378 18.5352 15.4626 18.0595 14.8753 18.0595C14.288 18.0595 13.8128 18.5352 13.8128 19.122V25.3595C13.8128 25.3603 13.8125 25.361 13.8125 25.3617V28.0179L32.8206 20.4105C33.2244 20.2617 33.6069 20.1873 34 20.1873Z" fill="#FF7B29"/>
<path d="M34 14.5244C34.3931 14.5244 34.7756 14.5987 35.1369 14.7369L48.875 20.2301V18.1386H48.8753V12.7472C48.8753 12.1604 48.4001 11.6847 47.8128 11.6847C47.2256 11.6847 46.7503 12.1604 46.7503 12.7472V16.1417L35.0625 11.4666V2.125H37.1875C37.7719 2.125 38.25 1.64686 38.25 1.0625C38.25 0.478138 37.7719 0 37.1875 0H30.8125C30.2281 0 29.75 0.478138 29.75 1.0625C29.75 1.64686 30.2281 2.125 30.8125 2.125H32.9375V11.4666L21.2503 16.1414V12.7472C21.2503 12.1604 20.7751 11.6847 20.1878 11.6847C19.6005 11.6847 19.1253 12.1604 19.1253 12.7472V17.7098C19.1253 17.7105 19.125 17.7112 19.125 17.7119V20.2301L32.8206 14.7475C33.2244 14.5987 33.6069 14.5244 34 14.5244Z" fill="#FF7B29"/>
</svg>
