<svg width="82" height="68" viewBox="0 0 82 68" fill="none" xmlns="http://www.w3.org/2000/svg">
<g clip-path="url(#clip0_1_2913)">
<path fill-rule="evenodd" clip-rule="evenodd" d="M45.421 44.3817C42.8255 44.3817 40.2301 44.6412 37.8942 45.4198L30.108 27.771C29.8484 28.0305 29.8484 28.2901 29.8484 28.2901L29.3293 29.0687L28.2912 28.8092C28.2912 28.8092 28.0316 28.8092 27.7721 28.8092L35.5583 46.1985C29.8484 48.5343 25.4362 52.687 23.3599 58.1374C24.1385 58.3969 24.9171 58.916 25.1767 59.6946C25.4362 59.9542 25.6957 60.4732 26.2148 60.7328C26.9935 60.9923 27.7721 60.9923 28.5507 60.7328C29.0698 60.4732 29.3293 59.9542 29.5889 59.6946C30.627 57.3587 33.7416 57.3587 34.7797 59.6946C35.0393 59.9542 35.2988 60.4732 35.8179 60.7328C36.5965 60.9923 37.3751 60.9923 38.1538 60.7328C38.6729 60.4732 38.9324 59.9542 39.1919 59.6946C40.2301 57.3587 43.3446 57.3587 44.6423 59.6946C44.6423 59.9542 45.1614 60.4732 45.421 60.7328C46.1996 60.9923 47.2378 60.9923 47.7568 60.7328C48.2759 60.4732 48.5355 59.9542 48.795 59.6946C50.0927 57.3587 52.9477 57.3587 54.2454 59.6946C54.5049 59.9542 54.7645 60.4732 55.024 60.7328C55.8026 60.9923 56.8408 60.9923 57.3599 60.7328C57.879 60.4732 58.1385 59.9542 58.3981 59.6946C59.6958 57.3587 62.5507 57.3587 63.8485 59.6946C64.108 59.9542 64.3675 60.4732 64.6271 60.7328C65.4057 60.9923 66.4439 60.9923 67.2225 60.7328C67.482 60.4732 67.7416 60.2137 68.0011 59.6946C65.4057 50.8702 56.3217 44.3817 45.421 44.3817Z" fill="#FF7B29"/>
<path d="M81.5013 62.0304C82.2799 60.4732 80.2036 58.9159 79.425 60.4732C78.9059 61.2518 78.3868 61.7709 77.6082 62.29C76.3105 63.0686 74.7532 63.0686 73.4555 62.29C72.6769 61.7709 72.1578 61.2518 71.8983 60.4732C71.3792 59.6945 70.0815 59.6945 69.8219 60.4732C69.3028 61.2518 68.7838 61.7709 68.0051 62.29C66.7074 63.0686 65.1502 63.0686 63.8525 62.29C63.0738 61.7709 62.5548 61.2518 62.0357 60.4732C61.7761 59.6945 60.4784 59.6945 59.9593 60.4732C59.6998 61.2518 59.1807 61.7709 58.4021 62.29C57.1044 63.0686 55.5471 63.0686 54.2494 62.29C53.4708 61.7709 52.9517 61.2518 52.4326 60.4732C52.1731 59.6945 50.8754 59.6945 50.3563 60.4732C50.0967 61.2518 49.5777 61.7709 48.799 62.29C47.5013 63.0686 45.9441 63.0686 44.6464 62.29C43.8677 61.7709 43.3486 61.2518 42.8296 60.4732C42.3105 59.6945 41.2723 59.6945 40.7532 60.4732C40.4937 61.2518 39.7151 61.7709 39.196 62.29C37.8983 63.0686 36.0815 63.0686 34.7838 62.29C34.2647 61.7709 33.7456 61.2518 33.2265 60.4732C32.7074 59.6945 31.6693 59.6945 31.1502 60.4732C30.6311 61.2518 30.112 61.7709 29.5929 62.29C28.2952 63.0686 26.4784 63.0686 25.1807 62.29C24.6616 61.7709 24.1425 61.2518 23.6235 60.4732C23.1044 59.6945 22.0662 59.6945 21.5471 60.4732C21.028 61.2518 20.509 61.7709 19.9899 62.29C18.6922 63.0686 16.8754 63.0686 15.5777 62.29C15.0586 61.7709 14.2799 61.2518 14.0204 60.4732C13.5013 59.6945 12.4631 59.6945 11.9441 60.4732C11.425 61.2518 10.9059 61.7709 10.3868 62.29C9.0891 63.0686 7.27231 63.0686 5.9746 62.29C5.45552 61.7709 4.67689 61.2518 4.41735 60.4732C3.37918 58.9159 1.56239 60.4732 2.34101 62.0304C2.8601 63.0686 3.89826 64.1068 4.93643 64.6258C7.01277 65.9235 9.34864 65.9235 11.425 64.6258C11.9441 64.3663 12.4631 63.8472 12.9822 63.3281C13.5013 63.8472 14.0204 64.3663 14.5395 64.6258C16.6158 65.9235 18.9517 65.9235 21.028 64.6258C21.5471 64.3663 22.0662 63.8472 22.5853 63.3281C23.1044 63.8472 23.6235 64.3663 24.1425 64.6258C26.2189 65.9235 28.5548 65.9235 30.6311 64.6258C31.1502 64.3663 31.6693 63.8472 32.1883 63.3281C32.7074 63.8472 33.2265 64.3663 33.7456 64.6258C35.8219 65.9235 38.1578 65.9235 40.2341 64.6258C40.7532 64.3663 41.2723 63.8472 41.7914 63.3281C42.3105 63.8472 42.8296 64.3663 43.3486 64.6258C45.425 65.9235 48.0204 65.9235 50.0967 64.6258C50.6158 64.3663 51.1349 63.8472 51.3944 63.3281C51.9135 63.8472 52.4326 64.3663 52.9517 64.6258C55.028 65.9235 57.6235 65.9235 59.6998 64.6258C60.2189 64.3663 60.738 63.8472 60.9975 63.3281C61.5166 63.8472 62.0357 64.3663 62.5548 64.6258C64.6311 65.9235 67.2265 65.9235 69.3028 64.6258C69.8219 64.3663 70.341 63.8472 70.8601 63.3281C71.1196 63.8472 71.6387 64.3663 72.1578 64.6258C74.2341 65.9235 76.8296 65.9235 78.9059 64.6258C79.9441 64.1068 80.7227 63.0686 81.5013 62.0304Z" fill="#FF7B29"/>
<path fill-rule="evenodd" clip-rule="evenodd" d="M42.5693 21.0229C42.8289 20.5038 43.0884 20.2443 43.348 19.7252C45.6838 17.3893 49.0579 15.8321 52.4319 15.8321C53.2106 15.8321 54.2487 15.8321 55.0274 16.0916V15.8321C49.3174 3.11452 34.7831 -2.85494 21.0273 1.29773C25.18 2.07636 28.8136 3.89315 32.1877 6.22903C36.0808 9.60307 39.9739 15.0535 42.5693 21.0229Z" fill="#FF7B29"/>
<path fill-rule="evenodd" clip-rule="evenodd" d="M14.0175 4.41211C1.81899 11.6793 -3.37184 26.7327 2.33808 39.4503C2.59762 38.6717 3.1167 38.1526 3.89533 37.3739C6.23121 35.0381 9.60525 33.4808 12.9793 33.4808C13.4984 33.2213 13.7579 33.4808 14.277 33.4808C11.6816 27.5113 10.1243 21.0228 10.3839 16.0915C10.6434 11.9388 11.9411 8.0457 14.0175 4.41211Z" fill="#FF7B29"/>
<path fill-rule="evenodd" clip-rule="evenodd" d="M17.3908 2.5957C14.2763 6.74837 12.7191 11.1606 12.2 16.0919C11.9404 21.0232 13.4977 26.9926 16.0931 32.7026C16.3526 32.1835 16.6122 31.9239 16.8717 31.6644C19.2076 29.069 22.5817 27.5117 25.9557 27.5117C26.9939 27.5117 27.7725 27.5117 28.5511 27.7713C29.0702 26.9926 29.5893 26.214 30.1084 25.6949C32.4442 23.0995 36.0778 21.8018 39.1923 21.5423C39.7114 21.5423 40.2305 21.5423 40.7496 21.5423C38.4137 16.0919 34.7801 10.901 30.887 7.78654C27.2534 4.67204 22.5817 3.11479 17.3908 2.5957Z" fill="#FF7B29"/>
</g>
<defs>
<clipPath id="clip0_1_2913">
<rect width="81.4962" height="68" fill="white"/>
</clipPath>
</defs>
</svg>
